<?xml version="1.0" standalone="no"?>
<!DOCTYPE svg PUBLIC "-//W3C//DTD SVG 20010904//EN"
 "http://www.w3.org/TR/2001/REC-SVG-20010904/DTD/svg10.dtd">
<svg version="1.0" xmlns="http://www.w3.org/2000/svg"
 width="152.000000pt" height="152.000000pt" viewBox="0 0 152.000000 152.000000"
 preserveAspectRatio="xMidYMid meet">
<metadata>
Created by potrace 1.14, written by Peter Selinger 2001-2017
</metadata>
<g transform="translate(0.000000,152.000000) scale(0.100000,-0.100000)"
fill="#000000" stroke="none">
<path d="M510 1275 c0 -15 -143 -531 -149 -538 -4 -4 -29 1 -55 13 -51 21 -76
25 -76 11 0 -5 27 -19 61 -31 54 -21 60 -25 57 -49 -3 -25 -5 -26 -73 -26 -89
0 -102 -18 -18 -25 69 -6 77 -10 69 -38 -5 -16 -19 -21 -71 -27 -82 -8 -85
-25 -4 -25 53 0 60 -2 55 -17 -2 -10 -12 -44 -20 -76 l-17 -57 -135 0 c-104 0
-135 -3 -132 -12 4 -10 55 -14 193 -18 l189 -5 8 -32 c21 -81 131 -112 189
-54 16 16 32 43 35 60 l7 31 153 0 154 0 0 -26 c0 -18 12 -38 36 -60 29 -28
43 -34 81 -34 38 0 50 5 79 34 21 21 34 44 34 60 l0 26 180 0 c152 0 180 2
180 15 0 12 -23 15 -121 17 l-122 3 -18 65 c-10 36 -18 68 -19 73 0 4 24 7 54
7 30 0 57 4 60 9 6 9 -49 21 -96 21 -18 0 -29 7 -33 21 -10 30 3 38 70 41 83
4 67 23 -19 23 -66 0 -70 1 -76 26 -7 24 -4 27 56 48 35 13 64 27 64 32 0 14
-20 11 -79 -11 -29 -12 -54 -20 -56 -18 -1 2 -34 125 -74 273 -40 149 -75 271
-76 273 -2 2 -26 -68 -55 -155 -29 -87 -54 -161 -56 -165 -2 -3 -25 0 -51 8
-25 8 -69 14 -98 14 -29 0 -73 -6 -98 -14 -26 -8 -49 -11 -51 -8 -2 4 -27 78
-55 165 -45 135 -61 174 -61 152z m60 -227 c23 -71 43 -128 45 -128 1 0 22 7
46 16 58 21 173 22 223 0 21 -9 42 -16 46 -16 5 0 27 57 50 128 24 70 45 130
49 134 8 10 133 -450 126 -463 -3 -4 -24 -14 -45 -20 -22 -7 -40 -18 -40 -26
0 -16 1 -16 51 3 35 14 42 15 50 3 15 -24 4 -34 -39 -37 -29 -2 -42 -8 -42
-18 0 -12 9 -14 46 -8 34 5 48 3 55 -7 20 -32 10 -41 -43 -38 -33 2 -53 -1
-56 -9 -2 -8 11 -12 40 -13 70 -1 79 -9 99 -80 10 -35 18 -67 19 -71 0 -5 -25
-8 -55 -8 -53 0 -55 -1 -55 -27 0 -16 -4 -34 -9 -42 -7 -11 -10 -9 -16 8 -3
11 -13 21 -20 21 -11 0 -12 -6 -5 -25 11 -28 5 -51 -16 -59 -9 -4 -14 2 -14
17 0 36 -12 68 -24 64 -6 -2 -9 -21 -7 -46 2 -40 1 -42 -17 -32 -33 17 -62 61
-62 92 l0 29 -174 0 -173 0 -7 -39 c-4 -27 -16 -48 -38 -67 l-33 -27 -3 46
c-5 69 -32 56 -32 -14 0 -27 -2 -29 -20 -19 -17 9 -20 17 -14 46 7 38 -14 50
-23 13 -8 -27 -23 -5 -23 34 0 26 -2 27 -55 27 -30 0 -55 3 -55 8 0 4 8 36 18
71 20 71 30 79 100 80 29 1 42 5 40 13 -3 8 -23 11 -56 9 -38 -2 -52 1 -52 11
0 29 17 40 60 36 28 -2 44 1 47 10 3 8 -8 12 -36 12 -29 0 -44 5 -48 16 -10
27 11 35 54 20 38 -13 53 -12 53 4 0 4 -18 13 -41 20 -22 8 -42 17 -45 21 -7
12 119 470 127 461 4 -4 25 -64 49 -134z"/>
<path d="M827 834 c-10 -10 -8 -126 2 -143 5 -8 16 -11 25 -8 24 9 19 150 -4
155 -9 1 -19 0 -23 -4z"/>
<path d="M680 796 c0 -62 11 -96 31 -96 16 0 19 8 19 49 0 62 -7 81 -31 81
-15 0 -19 -7 -19 -34z"/>
<path d="M760 602 c-26 -8 -39 -23 -33 -38 3 -8 11 -14 19 -14 19 0 18 -25 -2
-41 -14 -11 -19 -10 -34 9 -18 22 -40 29 -40 13 0 -15 41 -61 54 -61 7 0 25 9
39 20 16 13 28 16 32 10 18 -29 90 21 83 59 -5 27 -25 22 -31 -9 -7 -33 -27
-39 -47 -15 -10 12 -10 19 -2 27 7 7 12 15 12 20 0 12 -34 26 -50 20z"/>
</g>
</svg>
